{
  "accessors": [
    {
      "bufferView": 2,
      "componentType": 5126,
      "count": 32,
      "max": [
        11.435253143310547,
        5.8268842697143555,
        1.1467602252960205
      ],
      "min": [
        -11.435253143310547,
        -5.853764057159424,
        -1.1191773414611816
      ],
      "type": "VEC3"
    },
    {
      "bufferView": 2,
      "byteOffset": 384,
      "componentType": 5126,
      "count": 32,
      "max": [
        2.0316258897423722e-08,
        0.7071068286895752,
        0.7071068286895752
      ],
      "min": [
        -2.0286815782810663e-08,
        -0.7071068286895752,
        -0.70710688829422
      ],
      "type": "VEC3"
    },
    {
      "bufferView": 3,
      "componentType": 5126,
      "count": 32,
      "max": [
        1.0,
        1.2952699535162537e-07,
        1.0795702110044658e-07,
        1.0
      ],
      "min": [
        -1.0,
        4.323566216157815e-08,
        6.481477754505249e-08,
        -1.0
      ],
      "type": "VEC4"
    },
    {
      "bufferView": 1,
      "componentType": 5126,
      "count": 32,
      "max": [
        2.0156283378601074,
        0.753110408782959
      ],
      "min": [
        0.2439774125814438,
        0.25346946716308594
      ],
      "type": "VEC2"
    },
    {
      "bufferView": 0,
      "componentType": 5125,
      "count": 48,
      "type": "SCALAR"
    },
    {
      "bufferView": 2,
      "byteOffset": 768,
      "componentType": 5126,
      "count": 1081,
      "max": [
        11.502342224121094,
        5.90897274017334,
        1.297364592552185
      ],
      "min": [
        -11.502342224121094,
        -5.949407577514648,
        -1.297364354133606
      ],
      "type": "VEC3"
    },
    {
      "bufferView": 2,
      "byteOffset": 13740,
      "componentType": 5126,
      "count": 1081,
      "max": [
        1.0,
        1.0,
        1.0
      ],
      "min": [
        -1.0,
        -1.0,
        -1.0
      ],
      "type": "VEC3"
    },
    {
      "bufferView": 3,
      "byteOffset": 512,
      "componentType": 5126,
      "count": 1081,
      "max": [
        1.0,
        1.0,
        1.0,
        1.0
      ],
      "min": [
        -1.0,
        -1.0,
        -1.0,
        -1.0
      ],
      "type": "VEC4"
    },
    {
      "bufferView": 1,
      "byteOffset": 256,
      "componentType": 5126,
      "count": 1081,
      "max": [
        1.147397756576538,
        1.0980809926986694
      ],
      "min": [
        -0.851861298084259,
        -0.8072514533996582
      ],
      "type": "VEC2"
    },
    {
      "bufferView": 0,
      "byteOffset": 192,
      "componentType": 5125,
      "count": 2628,
      "type": "SCALAR"
    },
    {
      "bufferView": 2,
      "byteOffset": 26712,
      "componentType": 5126,
      "count": 18,
      "max": [
        1.3110460042953491,
        2.9902000427246094,
        1.3113138675689697
      ],
      "min": [
        -1.3110456466674805,
        -2.9902005195617676,
        0.0027213089633733034
      ],
      "type": "VEC3"
    },
    {
      "bufferView": 2,
      "byteOffset": 26928,
      "componentType": 5126,
      "count": 18,
      "max": [
        0.9806850552558899,
        0.0,
        1.0
      ],
      "min": [
        -0.9806850552558899,
        0.0,
        0.19559378921985626
      ],
      "type": "VEC3"
    },
    {
      "bufferView": 1,
      "byteOffset": 8904,
      "componentType": 5126,
      "count": 18,
      "max": [
        0.99991774559021,
        0.9966903924942017
      ],
      "min": [
        8.226962381741032e-05,
        8.195774717023596e-05
      ],
      "type": "VEC2"
    },
    {
      "bufferView": 0,
      "byteOffset": 10704,
      "componentType": 5125,
      "count": 48,
      "type": "SCALAR"
    }
  ],
  "asset": {
    "extras": {
      "author": "Euan Mitchell (https://sketchfab.com/tigg)",
      "license": "CC-BY-4.0 (http://creativecommons.org/licenses/by/4.0/)",
      "source": "https://sketchfab.com/3d-models/satellite-90c8fafa35c84e3b90601dd3ac8d202f",
      "title": "Satellite"
    },
    "generator": "Sketchfab-12.66.0",
    "version": "2.0"
  },
  "bufferViews": [
    {
      "buffer": 0,
      "byteLength": 10896,
      "name": "floatBufferViews",
      "target": 34963
    },
    {
      "buffer": 0,
      "byteLength": 9048,
      "byteOffset": 10896,
      "byteStride": 8,
      "name": "floatBufferViews",
      "target": 34962
    },
    {
      "buffer": 0,
      "byteLength": 27144,
      "byteOffset": 19944,
      "byteStride": 12,
      "name": "floatBufferViews",
      "target": 34962
    },
    {
      "buffer": 0,
      "byteLength": 17808,
      "byteOffset": 47088,
      "byteStride": 16,
      "name": "floatBufferViews",
      "target": 34962
    }
  ],
  "buffers": [
    {
      "byteLength": 64896,
      "uri": "scene.bin"
    }
  ],
  "images": [
    {
      "uri": "textures/solarpanels_baseColor.png"
    },
    {
      "uri": "textures/solarpanels_metallicRoughness.png"
    },
    {
      "uri": "textures/solarpanels_normal.png"
    },
    {
      "uri": "textures/panels_baseColor.png"
    },
    {
      "uri": "textures/panels_normal.png"
    },
    {
      "uri": "textures/decals_baseColor.png"
    }
  ],
  "materials": [
    {
      "doubleSided": true,
      "name": "solarpanels",
      "normalTexture": {
        "index": 2
      },
      "pbrMetallicRoughness": {
        "baseColorTexture": {
          "index": 0
        },
        "metallicRoughnessTexture": {
          "index": 1
        }
      }
    },
    {
      "doubleSided": true,
      "name": "panels",
      "normalTexture": {
        "index": 4
      },
      "pbrMetallicRoughness": {
        "baseColorTexture": {
          "index": 3
        },
        "metallicFactor": 0.0,
        "roughnessFactor": 0.5579664122
      }
    },
    {
      "alphaMode": "BLEND",
      "name": "decals",
      "pbrMetallicRoughness": {
        "baseColorTexture": {
          "index": 5
        },
        "metallicFactor": 0.0
      }
    }
  ],
  "meshes": [
    {
      "name": "Circle_solarpanels_0",
      "primitives": [
        {
          "attributes": {
            "NORMAL": 1,
            "POSITION": 0,
            "TANGENT": 2,
            "TEXCOORD_0": 3
          },
          "indices": 4,
          "material": 0,
          "mode": 4
        }
      ]
    },
    {
      "name": "Circle_panels_0",
      "primitives": [
        {
          "attributes": {
            "NORMAL": 6,
            "POSITION": 5,
            "TANGENT": 7,
            "TEXCOORD_0": 8
          },
          "indices": 9,
          "material": 1,
          "mode": 4
        }
      ]
    },
    {
      "name": "Circle_decals_0",
      "primitives": [
        {
          "attributes": {
            "NORMAL": 11,
            "POSITION": 10,
            "TEXCOORD_0": 12
          },
          "indices": 13,
          "material": 2,
          "mode": 4
        }
      ]
    }
  ],
  "nodes": [
    {
      "children": [
        1
      ],
      "matrix": [
        0.0014464230043813586,
        0.0,
        0.0,
        0.0,
        0.0,
        3.211704245623356e-19,
        -0.0014464230043813586,
        0.0,
        0.0,
        0.0014464230043813586,
        3.211704245623356e-19,
        0.0,
        0.0,
        0.0,
        0.0,
        1.0
      ],
      "name": "Sketchfab_model"
    },
    {
      "children": [
        2
      ],
      "matrix": [
        1.0,
        0.0,
        0.0,
        0.0,
        0.0,
        0.0,
        1.0,
        0.0,
        0.0,
        -1.0,
        0.0,
        0.0,
        0.0,
        0.0,
        0.0,
        1.0
      ],
      "name": "9e445456817142dea33796d5777c743e.fbx"
    },
    {
      "children": [
        3
      ],
      "name": "RootNode"
    },
    {
      "children": [
        4,
        5,
        6
      ],
      "matrix": [
        94.86793810088916,
        -12.39940625727188,
        -29.09170876855021,
        0.0,
        -7.357471021318673e-08,
        91.99271242262525,
        -39.208938536106416,
        0.0,
        31.623927564535915,
        37.19671156185325,
        87.27158946930227,
        0.0,
        0.0,
        0.0,
        0.0,
        1.0
      ],
      "name": "Circle"
    },
    {
      "mesh": 0,
      "name": "Circle_solarpanels_0"
    },
    {
      "mesh": 1,
      "name": "Circle_panels_0"
    },
    {
      "mesh": 2,
      "name": "Circle_decals_0"
    }
  ],
  "samplers": [
    {
      "magFilter": 9729,
      "minFilter": 9987,
      "wrapS": 10497,
      "wrapT": 10497
    }
  ],
  "scene": 0,
  "scenes": [
    {
      "name": "Sketchfab_Scene",
      "nodes": [
        0
      ]
    }
  ],
  "textures": [
    {
      "sampler": 0,
      "source": 0
    },
    {
      "sampler": 0,
      "source": 1
    },
    {
      "sampler": 0,
      "source": 2
    },
    {
      "sampler": 0,
      "source": 3
    },
    {
      "sampler": 0,
      "source": 4
    },
    {
      "sampler": 0,
      "source": 5
    }
  ]
}
